<svg width="25" height="25" viewBox="0 0 25 25" fill="none" xmlns="http://www.w3.org/2000/svg">
<path id="Close Button" d="M22.8678 24.6362C23.3529 25.1213 24.151 25.1213 24.6362 24.6362C25.1213 24.151 25.1213 23.3529 24.6362 22.8678L14.2684 12.5L24.6362 2.13224C25.1213 1.6471 25.1213 0.848983 24.6362 0.36385C24.151 -0.121283 23.3529 -0.121283 22.8678 0.36385L12.5 10.7316L2.13224 0.36385C1.6471 -0.121283 0.848983 -0.121283 0.36385 0.36385C-0.121283 0.848983 -0.121283 1.6471 0.36385 2.13224L10.7316 12.5L0.36385 22.8678C-0.121283 23.3529 -0.121283 24.151 0.36385 24.6362C0.848983 25.1213 1.6471 25.1213 2.13224 24.6362L12.5 14.2684L22.8678 24.6362Z" fill="black"/>
</svg>
