<svg width="45" height="45" viewBox="0 0 45 45" fill="none" xmlns="http://www.w3.org/2000/svg">
<g id="Logo">
<path id="Vector" d="M44.9993 22.4999C44.9993 34.9259 34.9263 45.0001 22.4992 45.0001C18.3699 45.0001 14.5026 43.8871 11.176 41.9478C20.2856 42.8899 26.4058 34.8697 31.2377 28.5943L38.9881 33.6139L39.657 31.6679C39.657 31.6679 37.5649 28.3571 35.9685 25.7781C34.5846 23.5398 39.7695 16.2953 37.6132 14.899C36.8071 14.3763 35.6739 15.1273 34.4328 16.2526C37.774 13.1273 40.5654 10.6461 42.5452 12.2729C44.1146 15.3442 44.9993 18.8192 44.9993 22.501V22.4999Z" fill="#7341C4"/>
<path id="Vector_2" d="M34.0775 6.50218C25.4525 5.88948 14.7375 11.4847 9.43456 22.2447C11.3806 10.0277 20.8971 1.7175 31.4209 1.83892C28.0629 0.386423 24.2743 -0.272371 20.308 0.104243C9.50988 1.12953 0.881493 9.95242 0.0653084 20.7674C-0.148294 23.6016 0.168737 26.3323 0.918592 28.8753C1.53354 30.6302 2.59256 32.402 4.09227 33.5633C12.5543 40.9292 22.797 32.9855 27.7234 26.3177L19.973 21.2981L21.475 19.8905C21.475 19.8905 25.3546 20.4436 28.3586 20.845C29.8819 21.0485 32.0494 18.5066 34.0168 16.6404C34.1472 16.5122 34.2787 16.3908 34.4058 16.275C34.4147 16.2694 34.4237 16.2593 34.4327 16.2503C37.7739 13.125 40.5654 10.6438 42.5451 12.2706C42.5316 12.2425 42.5181 12.2155 42.5046 12.1874C40.906 8.94174 37.6851 6.75738 34.0775 6.50106V6.50218Z" fill="#7341C4"/>
</g>
</svg>
