<svg width="24" height="18" viewBox="0 0 24 18" fill="none" xmlns="http://www.w3.org/2000/svg">
<path id="Mail Icon" d="M3 1.5C2.17031 1.5 1.5 2.17031 1.5 3V4.87031L10.6688 11.5922C11.4609 12.1734 12.5391 12.1734 13.3312 11.5922L22.5 4.87031V3C22.5 2.17031 21.8297 1.5 21 1.5H3ZM1.5 6.73125V15C1.5 15.8297 2.17031 16.5 3 16.5H21C21.8297 16.5 22.5 15.8297 22.5 15V6.73125L14.2172 12.8016C12.8953 13.7672 11.1 13.7672 9.78281 12.8016L1.5 6.73125ZM0 3C0 1.34531 1.34531 0 3 0H21C22.6547 0 24 1.34531 24 3V15C24 16.6547 22.6547 18 21 18H3C1.34531 18 0 16.6547 0 15V3Z" fill="black"/>
</svg>
