<svg width="24" height="19" viewBox="0 0 24 19" fill="none" xmlns="http://www.w3.org/2000/svg">
<path id="Name Icon" d="M21.3333 1.35714C22.0708 1.35714 22.6667 1.96362 22.6667 2.71429V16.2857C22.6667 17.0364 22.0708 17.6429 21.3333 17.6429H2.66667C1.92917 17.6429 1.33333 17.0364 1.33333 16.2857V2.71429C1.33333 1.96362 1.92917 1.35714 2.66667 1.35714H21.3333ZM2.66667 0C1.19583 0 0 1.21719 0 2.71429V16.2857C0 17.7828 1.19583 19 2.66667 19H21.3333C22.8042 19 24 17.7828 24 16.2857V2.71429C24 1.21719 22.8042 0 21.3333 0H2.66667ZM6.66667 6.78571C6.66667 6.42578 6.80714 6.08058 7.05719 5.82607C7.30724 5.57156 7.64638 5.42857 8 5.42857C8.35362 5.42857 8.69276 5.57156 8.94281 5.82607C9.19286 6.08058 9.33333 6.42578 9.33333 6.78571C9.33333 7.14565 9.19286 7.49085 8.94281 7.74536C8.69276 7.99987 8.35362 8.14286 8 8.14286C7.64638 8.14286 7.30724 7.99987 7.05719 7.74536C6.80714 7.49085 6.66667 7.14565 6.66667 6.78571ZM10.6667 6.78571C10.6667 6.06584 10.3857 5.37545 9.88562 4.86642C9.38552 4.3574 8.70724 4.07143 8 4.07143C7.29276 4.07143 6.61448 4.3574 6.11438 4.86642C5.61428 5.37545 5.33333 6.06584 5.33333 6.78571C5.33333 7.50559 5.61428 8.19598 6.11438 8.705C6.61448 9.21403 7.29276 9.5 8 9.5C8.70724 9.5 9.38552 9.21403 9.88562 8.705C10.3857 8.19598 10.6667 7.50559 10.6667 6.78571ZM4.66667 14.25C4.66667 13.1261 5.5625 12.2143 6.66667 12.2143H9.33333C10.4375 12.2143 11.3333 13.1261 11.3333 14.25C11.3333 14.6232 11.6333 14.9286 12 14.9286C12.3667 14.9286 12.6667 14.6232 12.6667 14.25C12.6667 12.3754 11.175 10.8571 9.33333 10.8571H6.66667C4.825 10.8571 3.33333 12.3754 3.33333 14.25C3.33333 14.6232 3.63333 14.9286 4 14.9286C4.36667 14.9286 4.66667 14.6232 4.66667 14.25ZM14.6667 5.42857C14.3 5.42857 14 5.73393 14 6.10714C14 6.48036 14.3 6.78571 14.6667 6.78571H20C20.3667 6.78571 20.6667 6.48036 20.6667 6.10714C20.6667 5.73393 20.3667 5.42857 20 5.42857H14.6667ZM14.6667 8.14286C14.3 8.14286 14 8.44821 14 8.82143C14 9.19464 14.3 9.5 14.6667 9.5H20C20.3667 9.5 20.6667 9.19464 20.6667 8.82143C20.6667 8.44821 20.3667 8.14286 20 8.14286H14.6667ZM14.6667 10.8571C14.3 10.8571 14 11.1625 14 11.5357C14 11.9089 14.3 12.2143 14.6667 12.2143H20C20.3667 12.2143 20.6667 11.9089 20.6667 11.5357C20.6667 11.1625 20.3667 10.8571 20 10.8571H14.6667Z" fill="black"/>
</svg>
