<svg width="18" height="21" viewBox="0 0 18 21" fill="none" xmlns="http://www.w3.org/2000/svg">
<path id="Vector" d="M12.2136 1.31263C13.4072 1.31263 14.552 1.79666 15.396 2.65824C16.24 3.51982 16.7141 4.68837 16.7141 5.90683C16.7141 7.12528 16.24 8.29384 15.396 9.15542C14.552 10.017 13.4072 10.501 12.2136 10.501C11.02 10.501 9.87531 10.017 9.0313 9.15542C8.1873 8.29384 7.71314 7.12528 7.71314 5.90683C7.71314 4.68837 8.1873 3.51982 9.0313 2.65824C9.87531 1.79666 11.02 1.31263 12.2136 1.31263ZM12.2136 11.8137C15.4082 11.8137 18 9.16789 18 5.90683C18 2.64577 15.4082 0 12.2136 0C9.01909 0 6.42728 2.64577 6.42728 5.90683C6.42728 7.30149 6.90144 8.58131 7.69305 9.59449L0.186851 17.257C-0.0622837 17.5113 -0.0622837 17.9297 0.186851 18.184L2.75857 20.8093C3.0077 21.0636 3.41757 21.0636 3.6667 20.8093C3.91584 20.5549 3.91584 20.1365 3.6667 19.8822L1.54906 17.7205L3.21264 16.0223L5.33028 18.184C5.57942 18.4383 5.98928 18.4383 6.23842 18.184C6.48755 17.9297 6.48755 17.5113 6.23842 17.257L4.12077 15.0952L8.60118 10.5215C9.59371 11.3296 10.8474 11.8137 12.2136 11.8137Z" fill="black"/>
</svg>
